<?xml version="1.0" encoding="UTF-8" standalone="no"?>
<!-- Created with Inkscape (http://www.inkscape.org/) -->

<svg
   width="319.19449mm"
   height="149.06844mm"
   viewBox="0 0 319.19448 149.06844"
   version="1.1"
   id="svg1"
   inkscape:version="1.4.2 (ebf0e940d0, 2025-05-08)"
   sodipodi:docname="unify-gioia-model.svg"
   inkscape:export-filename="unify-gioia-model.pdf"
   inkscape:export-xdpi="96"
   inkscape:export-ydpi="96"
   xmlns:inkscape="http://www.inkscape.org/namespaces/inkscape"
   xmlns:sodipodi="http://sodipodi.sourceforge.net/DTD/sodipodi-0.dtd"
   xmlns="http://www.w3.org/2000/svg"
   xmlns:svg="http://www.w3.org/2000/svg"
   xmlns:ns4="http://wanglongqi.github.io/WriteTeX">
  <sodipodi:namedview
     id="namedview1"
     pagecolor="#ffffff"
     bordercolor="#000000"
     borderopacity="0.25"
     inkscape:showpageshadow="2"
     inkscape:pageopacity="0.0"
     inkscape:pagecheckerboard="0"
     inkscape:deskcolor="#d1d1d1"
     inkscape:document-units="mm"
     showgrid="true"
     inkscape:zoom="1.519554"
     inkscape:cx="342.20567"
     inkscape:cy="439.60267"
     inkscape:window-width="3830"
     inkscape:window-height="2076"
     inkscape:window-x="2164"
     inkscape:window-y="78"
     inkscape:window-maximized="1"
     inkscape:current-layer="layer1">
    <inkscape:grid
       id="grid1"
       units="mm"
       originx="3.9666179"
       originy="3.1749855"
       spacingx="0.26458334"
       spacingy="0.26458333"
       empcolor="#0099e5"
       empopacity="0.30196078"
       color="#0099e5"
       opacity="0.14901961"
       empspacing="5"
       enabled="true"
       visible="true" />
  </sodipodi:namedview>
  <defs
     id="defs1">
    <marker
       style="overflow:visible"
       id="DartArrow"
       refX="0"
       refY="0"
       orient="auto-start-reverse"
       inkscape:stockid="Dart arrow"
       markerWidth="1"
       markerHeight="1"
       viewBox="0 0 1 1"
       inkscape:isstock="true"
       inkscape:collect="always"
       preserveAspectRatio="xMidYMid">
      <path
         style="fill:context-stroke;fill-rule:evenodd;stroke:none"
         d="M 0,0 5,-5 -12.5,0 5,5 Z"
         transform="scale(-0.5)"
         id="path8" />
    </marker>
    <inkscape:path-effect
       effect="bspline"
       id="path-effect5"
       is_visible="true"
       lpeversion="1.3"
       weight="33.333333"
       steps="2"
       helper_size="0"
       apply_no_weight="true"
       apply_with_weight="true"
       only_selected="false"
       uniform="false" />
    <inkscape:path-effect
       effect="bspline"
       id="path-effect3"
       is_visible="true"
       lpeversion="1.3"
       weight="33.333333"
       steps="2"
       helper_size="0"
       apply_no_weight="true"
       apply_with_weight="true"
       only_selected="false"
       uniform="false" />
    <inkscape:path-effect
       effect="bspline"
       id="path-effect2"
       is_visible="true"
       lpeversion="1.3"
       weight="33.333333"
       steps="2"
       helper_size="0"
       apply_no_weight="true"
       apply_with_weight="true"
       only_selected="false"
       uniform="false" />
    <inkscape:path-effect
       effect="bspline"
       id="path-effect1"
       is_visible="true"
       lpeversion="1.3"
       weight="33.333333"
       steps="2"
       helper_size="0"
       apply_no_weight="true"
       apply_with_weight="true"
       only_selected="false"
       uniform="false" />
    <marker
       style="overflow:visible"
       id="DartArrow-2"
       refX="0"
       refY="0"
       orient="auto-start-reverse"
       inkscape:stockid="Dart arrow"
       markerWidth="1"
       markerHeight="1"
       viewBox="0 0 1 1"
       inkscape:isstock="true"
       inkscape:collect="always"
       preserveAspectRatio="xMidYMid">
      <path
         style="fill:context-stroke;fill-rule:evenodd;stroke:none"
         d="M 0,0 5,-5 -12.5,0 5,5 Z"
         transform="scale(-0.5)"
         id="path8-9" />
    </marker>
    <marker
       style="overflow:visible"
       id="DartArrow-2-0"
       refX="0"
       refY="0"
       orient="auto-start-reverse"
       inkscape:stockid="Dart arrow"
       markerWidth="1"
       markerHeight="1"
       viewBox="0 0 1 1"
       inkscape:isstock="true"
       inkscape:collect="always"
       preserveAspectRatio="xMidYMid">
      <path
         style="fill:context-stroke;fill-rule:evenodd;stroke:none"
         d="M 0,0 5,-5 -12.5,0 5,5 Z"
         transform="scale(-0.5)"
         id="path8-9-2" />
    </marker>
    <marker
       style="overflow:visible"
       id="DartArrow-8"
       refX="0"
       refY="0"
       orient="auto-start-reverse"
       inkscape:stockid="Dart arrow"
       markerWidth="1"
       markerHeight="1"
       viewBox="0 0 1 1"
       inkscape:isstock="true"
       inkscape:collect="always"
       preserveAspectRatio="xMidYMid">
      <path
         style="fill:context-stroke;fill-rule:evenodd;stroke:none"
         d="M 0,0 5,-5 -12.5,0 5,5 Z"
         transform="scale(-0.5)"
         id="path8-97" />
    </marker>
    <marker
       style="overflow:visible"
       id="DartArrow-2-0-3"
       refX="0"
       refY="0"
       orient="auto-start-reverse"
       inkscape:stockid="Dart arrow"
       markerWidth="1"
       markerHeight="1"
       viewBox="0 0 1 1"
       inkscape:isstock="true"
       inkscape:collect="always"
       preserveAspectRatio="xMidYMid">
      <path
         style="fill:context-stroke;fill-rule:evenodd;stroke:none"
         d="M 0,0 5,-5 -12.5,0 5,5 Z"
         transform="scale(-0.5)"
         id="path8-9-2-6" />
    </marker>
    <g
       id="g8195">
      <g
         id="g9079">
        <path
           d="m 5.875,-1 c 0.21875,0.96875 1.046875,1.171875 1.453125,1.171875 0.5625,0 0.96875,-0.359375 1.25,-0.953125 0.296875,-0.609375 0.515625,-1.625 0.515625,-1.6875 0,-0.078125 -0.078125,-0.15625 -0.171875,-0.15625 -0.15625,0 -0.171875,0.09375 -0.25,0.359375 -0.296875,1.1875 -0.609375,2.09375 -1.296875,2.09375 -0.515625,0 -0.515625,-0.5625 -0.515625,-0.796875 0,-0.390625 0.046875,-0.5625 0.21875,-1.28125 0.125,-0.46875 0.234375,-0.9375 0.34375,-1.421875 L 8.125,-6.46875 C 8.25,-6.90625 8.25,-6.9375 8.25,-6.984375 c 0,-0.265625 -0.203125,-0.4375 -0.46875,-0.4375 -0.5,0 -0.625,0.4375 -0.71875,0.859375 -0.171875,0.671875 -1.109375,4.375 -1.21875,4.984375 -0.03125,0 -0.703125,1.40625 -1.953125,1.40625 -0.890625,0 -1.0625,-0.78125 -1.0625,-1.40625 0,-0.984375 0.484375,-2.359375 0.921875,-3.515625 0.203125,-0.546875 0.296875,-0.78125 0.296875,-1.125 0,-0.734375 -0.53125,-1.375 -1.359375,-1.375 -1.578125,0 -2.21875,2.5 -2.21875,2.640625 0,0.0625 0.0625,0.15625 0.1875,0.15625 0.15625,0 0.171875,-0.078125 0.234375,-0.3125 C 1.3125,-6.59375 1.984375,-7.25 2.640625,-7.25 c 0.171875,0 0.4375,0.015625 0.4375,0.5625 0,0.453125 -0.1875,0.953125 -0.4375,1.609375 -0.765625,2.046875 -0.84375,2.703125 -0.84375,3.21875 0,1.75 1.3125,2.03125 2.03125,2.03125 1.09375,0 1.703125,-0.75 2.046875,-1.171875 z m 0,0"
           id="path2188" />
      </g>
      <g
         id="g9793">
        <path
           d="m 3.359375,0.0625 c 0,-1 -0.328125,-1.734375 -1.03125,-1.734375 C 1.78125,-1.671875 1.5,-1.21875 1.5,-0.84375 1.5,-0.46875 1.75,0 2.34375,0 2.5625,0 2.75,-0.0625 2.90625,-0.21875 c 0.03125,-0.046875 0.0625,-0.046875 0.078125,-0.046875 0.03125,0 0.03125,0.25 0.03125,0.328125 0,0.578125 -0.109375,1.6875 -1.109375,2.8125 -0.1875,0.203125 -0.1875,0.234375 -0.1875,0.28125 0,0.078125 0.09375,0.171875 0.171875,0.171875 0.140625,0 1.46875,-1.28125 1.46875,-3.265625 z m 0,0"
           id="path8267" />
      </g>
      <g
         id="g976">
        <path
           d="m 4.53125,1.921875 c -0.46875,0.65625 -1.140625,1.25 -1.984375,1.25 -0.203125,0 -1.03125,-0.03125 -1.296875,-0.828125 0.0625,0.015625 0.140625,0.015625 0.171875,0.015625 0.53125,0 0.875,-0.453125 0.875,-0.84375 0,-0.390625 -0.328125,-0.53125 -0.59375,-0.53125 -0.28125,0 -0.875,0.203125 -0.875,1.046875 0,0.875 0.734375,1.484375 1.71875,1.484375 1.71875,0 3.46875,-1.59375 3.9375,-3.5 l 1.6875,-6.71875 c 0.03125,-0.078125 0.0625,-0.1875 0.0625,-0.28125 0,-0.265625 -0.203125,-0.4375 -0.46875,-0.4375 -0.15625,0 -0.515625,0.0625 -0.65625,0.59375 L 5.84375,-1.78125 C 5.75,-1.46875 5.75,-1.421875 5.609375,-1.234375 5.265625,-0.75 4.703125,-0.171875 3.875,-0.171875 c -0.96875,0 -1.046875,-0.953125 -1.046875,-1.40625 0,-0.984375 0.453125,-2.3125 0.921875,-3.546875 0.1875,-0.5 0.296875,-0.75 0.296875,-1.09375 0,-0.71875 -0.515625,-1.375 -1.359375,-1.375 -1.578125,0 -2.21875,2.5 -2.21875,2.640625 0,0.0625 0.0625,0.15625 0.1875,0.15625 0.15625,0 0.171875,-0.078125 0.234375,-0.3125 C 1.3125,-6.5625 1.96875,-7.25 2.640625,-7.25 c 0.15625,0 0.4375,0 0.4375,0.5625 0,0.453125 -0.1875,0.953125 -0.4375,1.609375 -0.84375,2.25 -0.84375,2.828125 -0.84375,3.234375 0,1.640625 1.171875,2.015625 2.03125,2.015625 0.5,0 1.109375,-0.15625 1.71875,-0.796875 L 5.5625,-0.609375 C 5.296875,0.40625 5.125,1.078125 4.53125,1.921875 Z m 0,0"
           id="path8176" />
      </g>
      <g
         id="g5536">
        <path
           d="m 3.140625,1.34375 c -0.3125,0.453125 -0.78125,0.859375 -1.375,0.859375 C 1.625,2.203125 1.046875,2.171875 0.875,1.625 c 0.03125,0.015625 0.09375,0.015625 0.109375,0.015625 0.359375,0 0.609375,-0.3125 0.609375,-0.59375 C 1.59375,0.78125 1.359375,0.6875 1.1875,0.6875 c -0.203125,0 -0.609375,0.140625 -0.609375,0.71875 0,0.609375 0.515625,1.03125 1.1875,1.03125 C 2.96875,2.4375 4.171875,1.34375 4.5,0.015625 L 5.671875,-4.65625 C 5.6875,-4.703125 5.71875,-4.78125 5.71875,-4.859375 5.71875,-5.03125 5.5625,-5.15625 5.390625,-5.15625 5.28125,-5.15625 5.03125,-5.109375 4.9375,-4.75 L 4.046875,-1.234375 C 4,-1.015625 4,-0.984375 3.890625,-0.859375 3.65625,-0.53125 3.265625,-0.125 2.6875,-0.125 c -0.671875,0 -0.734375,-0.65625 -0.734375,-0.96875 0,-0.6875 0.328125,-1.609375 0.65625,-2.46875 0.125,-0.34375 0.203125,-0.515625 0.203125,-0.75 0,-0.5 -0.359375,-0.953125 -0.953125,-0.953125 -1.09375,0 -1.53125,1.734375 -1.53125,1.828125 0,0.046875 0.046875,0.109375 0.125,0.109375 0.109375,0 0.125,-0.046875 0.171875,-0.21875 0.28125,-1 0.734375,-1.484375 1.203125,-1.484375 0.109375,0 0.3125,0 0.3125,0.390625 0,0.3125 -0.125,0.65625 -0.3125,1.109375 C 1.25,-1.953125 1.25,-1.5625 1.25,-1.28125 1.25,-0.140625 2.0625,0.125 2.65625,0.125 3,0.125 3.4375,0.015625 3.84375,-0.4375 l 0.015625,0.015625 C 3.6875,0.28125 3.5625,0.75 3.140625,1.34375 Z m 0,0"
           id="path6689" />
      </g>
    </g>
    <g
       id="g223">
      <g
         id="g5759">
        <path
           d="m 18.65625,-11.8125 c 0.46875,-0.8125 0.921875,-1.578125 2.171875,-1.703125 C 21,-13.53125 21.1875,-13.546875 21.1875,-13.875 c 0,-0.234375 -0.1875,-0.234375 -0.234375,-0.234375 -0.04687,0 -0.1875,0.04687 -1.5625,0.04687 -0.609375,0 -1.25,-0.04687 -1.859375,-0.04687 -0.125,0 -0.359375,0 -0.359375,0.390625 0,0.1875 0.15625,0.203125 0.28125,0.203125 0.421875,0.03125 1.078125,0.15625 1.078125,0.796875 0,0.265625 -0.07813,0.40625 -0.296875,0.765625 l -5.640625,9.859375 -0.734375,-10.75 c 0,-0.25 0.21875,-0.640625 1.375,-0.671875 0.28125,0 0.484375,0 0.484375,-0.390625 0,-0.203125 -0.203125,-0.203125 -0.3125,-0.203125 -0.71875,0 -1.484375,0.04687 -2.234375,0.04687 H 10.09375 c -0.296875,0 -0.671875,-0.04687 -0.984375,-0.04687 -0.125,0 -0.375,0 -0.375,0.390625 0,0.203125 0.140625,0.203125 0.5,0.203125 0.953125,0 0.953125,0.03125 1.03125,1.28125 l 0.0625,0.75 L 4.984375,-2.09375 4.21875,-12.75 c 0,-0.21875 0,-0.734375 1.40625,-0.765625 0.21875,0 0.453125,0 0.453125,-0.359375 0,-0.234375 -0.1875,-0.234375 -0.3125,-0.234375 -0.71875,0 -1.484375,0.04687 -2.234375,0.04687 H 2.453125 c -0.3125,0 -0.671875,-0.04687 -0.984375,-0.04687 -0.125,0 -0.375,0 -0.375,0.390625 0,0.203125 0.171875,0.203125 0.453125,0.203125 0.96875,0 1,0.125 1.03125,0.796875 l 0.90625,12.671875 C 3.515625,0.3125 3.53125,0.4375 3.78125,0.4375 c 0.203125,0 0.25,-0.09375 0.4375,-0.390625 L 10.375,-10.71875 11.140625,-0.046875 c 0.01563,0.359375 0.03125,0.484375 0.28125,0.484375 0.203125,0 0.265625,-0.109375 0.4375,-0.390625 z m 0,0"
           id="path2992" />
      </g>
      <g
         id="g8449">
        <path
           d="m 3.765625,1.609375 c -0.375,0.546875 -0.9375,1.03125 -1.640625,1.03125 -0.171875,0 -0.859375,-0.03125 -1.078125,-0.6875 C 1.09375,1.96875 1.15625,1.96875 1.1875,1.96875 c 0.4375,0 0.71875,-0.375 0.71875,-0.703125 C 1.90625,0.9375 1.640625,0.8125 1.421875,0.8125 1.1875,0.8125 0.6875,0.984375 0.6875,1.6875 c 0,0.734375 0.625,1.234375 1.4375,1.234375 1.4375,0 2.875,-1.3125 3.28125,-2.90625 l 1.40625,-5.59375 c 0.015625,-0.078125 0.046875,-0.15625 0.046875,-0.25 0,-0.203125 -0.171875,-0.359375 -0.390625,-0.359375 -0.125,0 -0.4375,0.0625 -0.546875,0.5 l -1.0625,4.203125 c -0.0625,0.265625 -0.0625,0.296875 -0.1875,0.453125 -0.28125,0.40625 -0.75,0.890625 -1.4375,0.890625 -0.8125,0 -0.875,-0.796875 -0.875,-1.171875 0,-0.828125 0.375,-1.921875 0.765625,-2.96875 0.15625,-0.40625 0.25,-0.609375 0.25,-0.890625 0,-0.609375 -0.4375,-1.15625 -1.140625,-1.15625 -1.3125,0 -1.84375,2.078125 -1.84375,2.203125 0,0.046875 0.046875,0.125 0.15625,0.125 C 0.671875,-4 0.6875,-4.0625 0.75,-4.265625 1.09375,-5.46875 1.640625,-6.03125 2.1875,-6.03125 c 0.140625,0 0.375,0 0.375,0.46875 0,0.375 -0.15625,0.78125 -0.375,1.328125 -0.703125,1.875 -0.703125,2.359375 -0.703125,2.703125 0,1.359375 0.984375,1.671875 1.703125,1.671875 0.40625,0 0.921875,-0.125 1.4375,-0.65625 L 4.640625,-0.5 c -0.21875,0.84375 -0.359375,1.40625 -0.875,2.109375 z m 0,0"
           id="path4314" />
      </g>
    </g>
    <inkscape:path-effect
       effect="bspline"
       id="path-effect5-6"
       is_visible="true"
       lpeversion="1.3"
       weight="33.333333"
       steps="2"
       helper_size="0"
       apply_no_weight="true"
       apply_with_weight="true"
       only_selected="false"
       uniform="false" />
    <marker
       style="overflow:visible"
       id="DartArrow-5"
       refX="0"
       refY="0"
       orient="auto-start-reverse"
       inkscape:stockid="Dart arrow"
       markerWidth="1"
       markerHeight="1"
       viewBox="0 0 1 1"
       inkscape:isstock="true"
       inkscape:collect="always"
       preserveAspectRatio="xMidYMid">
      <path
         style="fill:context-stroke;fill-rule:evenodd;stroke:none"
         d="M 0,0 5,-5 -12.5,0 5,5 Z"
         transform="scale(-0.5)"
         id="path8-5" />
    </marker>
    <marker
       style="overflow:visible"
       id="DartArrow-5-9"
       refX="0"
       refY="0"
       orient="auto-start-reverse"
       inkscape:stockid="Dart arrow"
       markerWidth="1"
       markerHeight="1"
       viewBox="0 0 1 1"
       inkscape:isstock="true"
       inkscape:collect="always"
       preserveAspectRatio="xMidYMid">
      <path
         style="fill:context-stroke;fill-rule:evenodd;stroke:none"
         d="M 0,0 5,-5 -12.5,0 5,5 Z"
         transform="scale(-0.5)"
         id="path8-5-3" />
    </marker>
    <marker
       style="overflow:visible"
       id="DartArrow-86"
       refX="0"
       refY="0"
       orient="auto-start-reverse"
       inkscape:stockid="Dart arrow"
       markerWidth="1"
       markerHeight="1"
       viewBox="0 0 1 1"
       inkscape:isstock="true"
       inkscape:collect="always"
       preserveAspectRatio="xMidYMid">
      <path
         style="fill:context-stroke;fill-rule:evenodd;stroke:none"
         d="M 0,0 5,-5 -12.5,0 5,5 Z"
         transform="scale(-0.5)"
         id="path8-8" />
    </marker>
  </defs>
  <g
     inkscape:label="Layer 1"
     inkscape:groupmode="layer"
     id="layer1"
     transform="translate(3.9675631,3.1748332)">
    <path
       style="fill:none;stroke:#000000;stroke-width:0.529;stroke-linecap:square;stroke-dasharray:none"
       d="M 6.6145835,134.93749 C 17.197917,128.32291 27.78125,121.70833 36.600765,121.26742 c 8.819516,-0.44092 15.874929,5.2916 22.269084,10.80381 6.394155,5.5122 12.126678,10.80376 19.623299,10.80371 7.496621,-5e-5 16.756852,-5.29161 25.355892,-10.14235 8.59904,-4.85074 16.53638,-9.26037 24.69445,-9.48082 8.15807,-0.22044 16.53637,3.74823 24.47395,8.37849 7.93757,4.63026 15.43395,9.92182 22.93056,9.70127 7.4966,-0.22054 14.99298,-5.95307 21.82811,-11.68576 6.83513,-5.73269 13.00862,-11.46522 20.50524,-9.03977 7.49661,2.42546 16.31588,13.00858 24.25345,15.43387 7.93757,2.42529 14.99298,-3.30724 22.04861,-8.81944 7.05562,-5.51221 14.11105,-10.80377 22.48961,-7.71685 8.37856,3.08692 18.07976,14.55198 27.78114,26.01725"
       id="path1"
       inkscape:path-effect="#path-effect2"
       inkscape:original-d="M 6.6145835,134.93749 C 17.197917,128.32291 27.78125,121.70833 38.364583,115.09375 c 7.055699,5.73275 14.111113,11.46527 21.166669,17.19791 5.732753,5.29177 11.465277,10.58333 17.197916,15.875 9.260602,-5.29177 18.520833,-10.58333 27.781252,-15.875 7.93766,-4.40981 15.875,-8.81944 23.8125,-13.22916 8.37864,3.96883 16.75694,7.9375 25.13542,11.90625 7.49667,5.29177 14.99305,10.58333 22.48958,15.87499 7.49668,-5.73275 14.99306,-11.46527 22.48958,-17.19791 6.17374,-5.73275 12.34723,-11.46528 18.52084,-17.19792 8.81962,10.58355 17.63889,21.16667 26.45833,31.75 7.0557,-5.73275 14.11111,-11.46528 21.16666,-17.19791 7.0557,-5.29178 14.11113,-10.58334 21.16667,-15.875 9.70158,11.4655 19.40279,22.93055 29.10416,34.39583" />
    <path
       style="fill:none;stroke:#000000;stroke-width:0.529;stroke-linecap:square;stroke-dasharray:none"
       d="m 5.2916669,5.2916663 c 102.6046431,0 205.2092731,0 307.8139131,0"
       id="path3"
       inkscape:path-effect="#path-effect3"
       inkscape:original-d="m 5.2916669,5.2916663 c 102.6046431,0 307.8139131,0 307.8139131,0"
       transform="translate(1.4840967,-8.2019995)" />
    <path
       style="fill:none;stroke:#000000;stroke-width:0.529;stroke-linecap:square;stroke-dasharray:3.174, 3.174;stroke-dashoffset:0"
       d="m 5.2916669,5.2916663 c 102.6046431,0 205.2092731,0 307.8139131,0"
       id="path4"
       inkscape:path-effect="#path-effect5"
       inkscape:original-d="m 5.2916669,5.2916663 c 102.6046431,0 307.8139131,0 307.8139131,0"
       transform="translate(-1.1617367,61.118665)" />
    <path
       style="fill:none;stroke:#000000;stroke-width:0.529;stroke-linecap:square;stroke-dasharray:3.174, 3.174;stroke-dashoffset:0"
       d="m 5.2916669,5.2916663 c 102.6046431,0 205.2092731,0 307.8139131,0"
       id="path4-0"
       inkscape:path-effect="#path-effect5-6"
       inkscape:original-d="m 5.2916669,5.2916663 c 102.6046431,0 307.8139131,0 307.8139131,0"
       transform="translate(0.26355525,127.26464)" />
    <path
       style="fill:none;stroke:#ff0000;stroke-width:1.58336;stroke-linecap:square;stroke-dasharray:12.66687965,3.16671991,1.58335996,3.16671991;stroke-dashoffset:0;stroke-opacity:1;marker-start:url(#DartArrow-86)"
       id="path5-3-3"
       sodipodi:type="arc"
       sodipodi:cx="235.72604"
       sodipodi:cy="-101.77436"
       sodipodi:rx="60.120552"
       sodipodi:ry="59.686932"
       sodipodi:start="6.0064852"
       sodipodi:end="5.3016846"
       sodipodi:arc-type="arc"
       d="m 293.55974,-118.0798 a 60.120552,59.686932 0 0 1 -31.52643,69.974842 60.120552,59.686932 0 0 1 -74.91817,-18.54856 60.120552,59.686932 0 0 1 5.26165,-76.477592 60.120552,59.686932 0 0 1 76.76279,-8.26293"
       sodipodi:open="true"
       transform="matrix(0.79728304,0.60360562,-0.60093027,0.79930145,0,0)" />
    <path
       style="fill:none;stroke:#ff0000;stroke-width:1;stroke-linecap:square;stroke-dasharray:none;stroke-dashoffset:0;stroke-opacity:1;marker-start:url(#DartArrow)"
       id="path5-3"
       sodipodi:type="arc"
       sodipodi:cx="164.84854"
       sodipodi:cy="-216.41022"
       sodipodi:rx="18.520834"
       sodipodi:ry="18.520834"
       sodipodi:start="6.0064852"
       sodipodi:end="5.3016846"
       sodipodi:arc-type="arc"
       d="m 182.66488,-221.46979 a 18.520834,18.520834 0 0 1 -9.71208,21.71317 18.520834,18.520834 0 0 1 -23.07941,-5.75561 18.520834,18.520834 0 0 1 1.62091,-23.73097 18.520834,18.520834 0 0 1 23.64767,-2.56399"
       sodipodi:open="true"
       transform="rotate(77.578402)" />
    <path
       style="fill:none;stroke:#000000;stroke-width:1;stroke-linecap:square;stroke-dasharray:none;stroke-dashoffset:0;stroke-opacity:1;marker-start:url(#DartArrow)"
       id="path5"
       sodipodi:type="arc"
       sodipodi:cx="78.874947"
       sodipodi:cy="67.175003"
       sodipodi:rx="18.520834"
       sodipodi:ry="18.520834"
       sodipodi:start="5.4840298"
       sodipodi:end="4.7171164"
       sodipodi:arc-type="arc"
       d="M 91.789751,53.899872 A 18.520834,18.520834 0 0 1 94.367821,77.323507 18.520834,18.520834 0 0 1 71.864658,84.317848 18.520834,18.520834 0 0 1 60.710369,63.559838 18.520834,18.520834 0 0 1 78.962502,48.654376"
       sodipodi:open="true" />
    <path
       style="fill:none;stroke:#0000ff;stroke-width:1.457;stroke-linecap:square;stroke-dasharray:11.656, 2.914, 1.457, 2.914;stroke-dashoffset:0;stroke-opacity:1;marker-start:url(#DartArrow-5)"
       id="path5-6"
       sodipodi:type="arc"
       sodipodi:cx="118.60609"
       sodipodi:cy="53.154873"
       sodipodi:rx="26.97743"
       sodipodi:ry="26.97743"
       sodipodi:start="5.4840298"
       sodipodi:end="4.7171164"
       sodipodi:arc-type="arc"
       d="M 137.41778,33.818328 A 26.97743,26.97743 0 0 1 141.17299,67.937175 26.97743,26.97743 0 0 1 108.39491,78.125126 26.97743,26.97743 0 0 1 92.147579,47.889027 26.97743,26.97743 0 0 1 118.73362,26.177744"
       sodipodi:open="true"
       transform="rotate(22.920871)" />
    <path
       style="fill:none;stroke:#0000ff;stroke-width:1.4566;stroke-linecap:square;stroke-dasharray:11.6528, 2.9132, 1.4566, 2.9132;stroke-dashoffset:0;stroke-opacity:1;marker-start:url(#DartArrow-5-9)"
       id="path5-6-5"
       sodipodi:type="arc"
       sodipodi:cx="45.184662"
       sodipodi:cy="-83.176468"
       sodipodi:rx="26.97743"
       sodipodi:ry="26.97743"
       sodipodi:start="5.4840298"
       sodipodi:end="4.7171164"
       sodipodi:arc-type="arc"
       d="m 63.996355,-102.51301 a 26.97743,26.97743 0 0 1 3.755214,34.118844 26.97743,26.97743 0 0 1 -32.778087,10.187951 26.97743,26.97743 0 0 1 -16.247327,-30.236099 26.97743,26.97743 0 0 1 26.58604,-21.711286"
       sodipodi:open="true"
       transform="rotate(83.740686)" />
    <path
       style="fill:none;stroke:#0000ff;stroke-width:1.5;stroke-linecap:square;stroke-dasharray:none;stroke-dashoffset:0;stroke-opacity:1;marker-start:url(#DartArrow)"
       id="path7"
       sodipodi:type="arc"
       sodipodi:cx="43.317375"
       sodipodi:cy="72.727684"
       sodipodi:rx="51.27306"
       sodipodi:ry="51.27306"
       sodipodi:start="0"
       sodipodi:end="5.653771"
       sodipodi:arc-type="arc"
       d="M 94.590435,72.727684 A 51.27306,51.27306 0 0 1 51.352122,123.36729 51.27306,51.27306 0 0 1 -5.4375143,88.598645 51.27306,51.27306 0 0 1 20.002356,27.062199 51.27306,51.27306 0 0 1 84.765103,42.5447"
       sodipodi:open="true"
       transform="rotate(-3.8153183)" />
    <path
       style="fill:none;stroke:#8000ff;stroke-width:1;stroke-linecap:square;stroke-dasharray:none;stroke-dashoffset:0;stroke-opacity:1;marker-start:url(#DartArrow);marker-end:url(#DartArrow)"
       d="M 97.894891,50.270984 V 66.145981 H 111.12406"
       id="path9" />
    <path
       style="fill:none;stroke:#ff0080;stroke-width:1;stroke-linecap:square;stroke-dasharray:none;stroke-dashoffset:0;stroke-opacity:1;marker-start:url(#DartArrow-2);marker-end:url(#DartArrow-2)"
       d="m 265.90671,102.3937 v 15.87499 h 13.22917"
       id="path9-0" />
    <path
       style="fill:none;stroke:#000000;stroke-width:0.499999;stroke-linecap:square;stroke-dasharray:none;stroke-dashoffset:0;stroke-opacity:1;marker-start:url(#DartArrow);marker-end:url(#DartArrow-2-0)"
       d="M 57.150004,53.048953 V 80.830202"
       id="path13" />
    <text
       xml:space="preserve"
       style="font-size:11.2889px;font-family:'Times New Roman';-inkscape-font-specification:'Times New Roman, ';text-align:center;writing-mode:lr-tb;direction:ltr;text-anchor:middle;fill:#000000;stroke:none;stroke-width:0.499999;stroke-linecap:square;stroke-dasharray:none;stroke-dashoffset:0;stroke-opacity:1"
       x="51.32917"
       y="64.293739"
       id="text14"><tspan
         sodipodi:role="line"
         id="tspan14"
         style="stroke-width:0.5"
         x="51.32917"
         y="64.293739">2<tspan
   style="font-style:italic"
   id="tspan15">s</tspan></tspan></text>
    <text
       xml:space="preserve"
       style="font-size:11.2889px;font-family:'Times New Roman';-inkscape-font-specification:'Times New Roman, ';text-align:center;writing-mode:lr-tb;direction:ltr;text-anchor:middle;fill:#000000;stroke:none;stroke-width:0.499999;stroke-linecap:square;stroke-dasharray:none;stroke-dashoffset:0;stroke-opacity:1"
       x="166.68752"
       y="113.77082"
       id="text16"><tspan
         sodipodi:role="line"
         id="tspan16"
         style="stroke-width:0.5"
         x="166.68752"
         y="113.77082" /></text>
    <g
       fill="#000000"
       fill-opacity="1"
       id="g17"
       transform="matrix(30,0,0,30,-6015.4766,-3277.2715)" />
    <g
       id="g44"
       transform="translate(70.379205,-5.8208336)">
      <path
         style="fill:none;stroke:#000000;stroke-width:0.499999;stroke-linecap:square;stroke-dasharray:none;stroke-dashoffset:0;stroke-opacity:1;marker-start:url(#DartArrow-8);marker-end:url(#DartArrow-2-0-3)"
         d="M 190.36772,121.44375 H 162.58647"
         id="path13-9" />
      <g
         ns4:text="$k_s + a\eta$"
         transform="matrix(0.9256143,0,0,0.9256143,-2.4895,13.3364)"
         id="g39">
        <g
           fill="#000000"
           fill-opacity="1"
           id="g34">
          <path
             d="m 2.859375,-6.8125 c 0,0 0,-0.109375 -0.125,-0.109375 -0.234375,0 -0.953125,0.078125 -1.21875,0.109375 -0.078125,0 -0.1875,0.015625 -0.1875,0.1875 0,0.125 0.09375,0.125 0.234375,0.125 0.484375,0 0.5,0.0625 0.5,0.171875 L 2.03125,-6.125 0.59375,-0.390625 c -0.046875,0.140625 -0.046875,0.15625 -0.046875,0.21875 0,0.234375 0.203125,0.28125 0.296875,0.28125 0.125,0 0.265625,-0.09375 0.328125,-0.203125 0.046875,-0.09375 0.5,-1.9375 0.5625,-2.1875 0.34375,0.03125 1.15625,0.1875 1.15625,0.84375 0,0.078125 0,0.109375 -0.03125,0.21875 -0.015625,0.109375 -0.03125,0.234375 -0.03125,0.34375 0,0.578125 0.390625,0.984375 0.90625,0.984375 0.296875,0 0.578125,-0.15625 0.796875,-0.53125 0.25,-0.4375 0.359375,-0.984375 0.359375,-1 0,-0.109375 -0.09375,-0.109375 -0.125,-0.109375 -0.09375,0 -0.109375,0.046875 -0.140625,0.1875 -0.203125,0.71875 -0.421875,1.234375 -0.859375,1.234375 -0.203125,0 -0.328125,-0.109375 -0.328125,-0.46875 0,-0.171875 0.046875,-0.40625 0.078125,-0.5625 C 3.5625,-1.3125 3.5625,-1.34375 3.5625,-1.453125 3.5625,-2.09375 2.9375,-2.375 2.078125,-2.5 2.390625,-2.671875 2.71875,-2.984375 2.9375,-3.234375 3.421875,-3.765625 3.875,-4.1875 4.359375,-4.1875 c 0.0625,0 0.078125,0 0.09375,0.015625 0.125,0.015625 0.125,0.015625 0.21875,0.078125 0.015625,0 0.015625,0.015625 0.03125,0.03125 -0.46875,0.03125 -0.5625,0.421875 -0.5625,0.546875 0,0.15625 0.109375,0.34375 0.375,0.34375 0.265625,0 0.546875,-0.21875 0.546875,-0.609375 0,-0.296875 -0.234375,-0.625 -0.671875,-0.625 -0.28125,0 -0.734375,0.078125 -1.453125,0.875 -0.34375,0.375 -0.734375,0.78125 -1.109375,0.921875 z m 0,0"
             transform="translate(178.585,110.99)"
             id="path34" />
        </g>
        <g
           fill="#000000"
           fill-opacity="1"
           id="g35">
          <path
             d="m 3,-2.625 c -0.171875,0.046875 -0.296875,0.1875 -0.296875,0.328125 0,0.171875 0.140625,0.234375 0.234375,0.234375 0.078125,0 0.34375,-0.046875 0.34375,-0.40625 0,-0.453125 -0.5,-0.609375 -0.9375,-0.609375 -1.078125,0 -1.28125,0.8125 -1.28125,1.015625 0,0.265625 0.15625,0.4375 0.25,0.515625 0.171875,0.140625 0.296875,0.171875 0.78125,0.25 0.15625,0.03125 0.59375,0.109375 0.59375,0.453125 0,0.125 -0.078125,0.390625 -0.359375,0.5625 C 2.046875,-0.125 1.703125,-0.125 1.625,-0.125 1.34375,-0.125 0.953125,-0.1875 0.78125,-0.421875 1.015625,-0.453125 1.171875,-0.625 1.171875,-0.8125 c 0,-0.171875 -0.125,-0.265625 -0.265625,-0.265625 -0.203125,0 -0.40625,0.171875 -0.40625,0.46875 0,0.421875 0.4375,0.671875 1.109375,0.671875 1.296875,0 1.53125,-0.875 1.53125,-1.140625 0,-0.640625 -0.703125,-0.765625 -0.96875,-0.8125 -0.0625,-0.015625 -0.234375,-0.046875 -0.28125,-0.0625 -0.25,-0.046875 -0.375,-0.1875 -0.375,-0.34375 0,-0.15625 0.125,-0.34375 0.28125,-0.453125 0.1875,-0.109375 0.421875,-0.125 0.546875,-0.125 0.140625,0 0.5,0.015625 0.65625,0.25 z m 0,0"
             transform="translate(183.771,112.485)"
             id="path35" />
        </g>
        <g
           fill="#000000"
           fill-opacity="1"
           id="g36">
          <path
             d="m 4.078125,-2.296875 h 2.78125 C 7,-2.296875 7.1875,-2.296875 7.1875,-2.5 7.1875,-2.6875 7,-2.6875 6.859375,-2.6875 h -2.78125 v -2.796875 c 0,-0.140625 0,-0.328125 -0.203125,-0.328125 -0.203125,0 -0.203125,0.1875 -0.203125,0.328125 V -2.6875 h -2.78125 c -0.140625,0 -0.328125,0 -0.328125,0.1875 0,0.203125 0.1875,0.203125 0.328125,0.203125 h 2.78125 V 0.5 c 0,0.140625 0,0.328125 0.203125,0.328125 0.203125,0 0.203125,-0.1875 0.203125,-0.328125 z m 0,0"
             transform="translate(190.243,110.99)"
             id="path36" />
        </g>
        <g
           fill="#000000"
           fill-opacity="1"
           id="g38">
          <path
             d="M 3.71875,-3.765625 C 3.53125,-4.140625 3.25,-4.40625 2.796875,-4.40625 c -1.15625,0 -2.390625,1.46875 -2.390625,2.921875 0,0.9375 0.546875,1.59375 1.3125,1.59375 0.203125,0 0.703125,-0.046875 1.296875,-0.75 0.078125,0.421875 0.4375,0.75 0.90625,0.75 0.359375,0 0.578125,-0.234375 0.75,-0.546875 0.15625,-0.359375 0.296875,-0.96875 0.296875,-0.984375 0,-0.109375 -0.09375,-0.109375 -0.125,-0.109375 -0.09375,0 -0.109375,0.046875 -0.140625,0.1875 -0.171875,0.640625 -0.34375,1.234375 -0.75,1.234375 -0.28125,0 -0.296875,-0.265625 -0.296875,-0.453125 0,-0.21875 0.015625,-0.3125 0.125,-0.75 C 3.890625,-1.71875 3.90625,-1.828125 4,-2.203125 L 4.359375,-3.59375 c 0.0625,-0.28125 0.0625,-0.296875 0.0625,-0.34375 0,-0.171875 -0.109375,-0.265625 -0.28125,-0.265625 -0.25,0 -0.390625,0.21875 -0.421875,0.4375 z M 3.078125,-1.1875 C 3.015625,-1 3.015625,-0.984375 2.875,-0.8125 2.4375,-0.265625 2.03125,-0.109375 1.75,-0.109375 c -0.5,0 -0.640625,-0.546875 -0.640625,-0.9375 0,-0.5 0.3125,-1.71875 0.546875,-2.1875 0.3125,-0.578125 0.75,-0.953125 1.15625,-0.953125 0.640625,0 0.78125,0.8125 0.78125,0.875 0,0.0625 -0.015625,0.125 -0.03125,0.171875 z m 0,0"
             id="path37"
             transform="translate(200.206,110.99)" />
          <path
             d="M 4.859375,-2.765625 C 4.921875,-2.9375 4.9375,-3.078125 4.9375,-3.34375 c 0,-0.640625 -0.390625,-1.0625 -1.140625,-1.0625 -0.78125,0 -1.296875,0.515625 -1.546875,0.875 -0.046875,-0.578125 -0.46875,-0.875 -0.921875,-0.875 -0.453125,0 -0.640625,0.390625 -0.734375,0.5625 C 0.421875,-3.5 0.296875,-2.90625 0.296875,-2.875 c 0,0.109375 0.09375,0.109375 0.109375,0.109375 0.109375,0 0.109375,-0.015625 0.171875,-0.234375 0.171875,-0.703125 0.375,-1.1875 0.734375,-1.1875 0.15625,0 0.296875,0.078125 0.296875,0.453125 0,0.21875 -0.03125,0.328125 -0.15625,0.84375 L 0.875,-0.59375 c -0.03125,0.15625 -0.09375,0.390625 -0.09375,0.4375 0,0.171875 0.140625,0.265625 0.296875,0.265625 0.125,0 0.296875,-0.078125 0.375,-0.28125 0,-0.015625 0.125,-0.484375 0.1875,-0.734375 l 0.21875,-0.890625 C 1.90625,-2.03125 1.96875,-2.25 2.03125,-2.46875 2.046875,-2.53125 2.125,-2.859375 2.140625,-2.921875 2.15625,-3.015625 2.46875,-3.5625 2.8125,-3.84375 3.03125,-4 3.34375,-4.1875 3.765625,-4.1875 c 0.4375,0 0.546875,0.34375 0.546875,0.703125 0,0.046875 0,0.21875 -0.109375,0.625 l -1.125,4.578125 c -0.03125,0.125 -0.03125,0.140625 -0.03125,0.171875 0,0.140625 0.109375,0.265625 0.265625,0.265625 0.3125,0 0.390625,-0.296875 0.421875,-0.40625 z m 0,0"
             transform="translate(205.46625,110.99)"
             id="path38" />
        </g>
      </g>
    </g>
    <text
       xml:space="preserve"
       style="font-size:11.2889px;font-family:'Times New Roman';-inkscape-font-specification:'Times New Roman, ';text-align:center;writing-mode:lr-tb;direction:ltr;text-anchor:middle;fill:#000000;stroke:none;stroke-width:0.499998;stroke-linecap:square;stroke-dasharray:none;stroke-dashoffset:0;stroke-opacity:1"
       x="246.43089"
       y="20.703804"
       id="text39"><tspan
         sodipodi:role="line"
         id="tspan39"
         style="font-style:italic;stroke-width:0.500001"
         x="246.43089"
         y="20.703804">V<tspan
   style="font-style:normal;stroke-width:0.500001"
   id="tspan40">,</tspan> R</tspan></text>
    <g
       inkscape:label=""
       transform="matrix(2.3462869,0,0,2.3462869,30.163254,106.59638)"
       id="g42">
      <g
         fill="#000000"
         fill-opacity="1"
         id="g5"
         transform="matrix(0.352778,0,0,0.352778,-0.868451,-0.638969)">
        <g
           id="use4"
           transform="translate(1.993,9.4049997)">
          <path
             d="m 5.875,-1 c 0.21875,0.96875 1.046875,1.171875 1.453125,1.171875 0.5625,0 0.96875,-0.359375 1.25,-0.953125 0.296875,-0.609375 0.515625,-1.625 0.515625,-1.6875 0,-0.078125 -0.078125,-0.15625 -0.171875,-0.15625 -0.15625,0 -0.171875,0.09375 -0.25,0.359375 -0.296875,1.1875 -0.609375,2.09375 -1.296875,2.09375 -0.515625,0 -0.515625,-0.5625 -0.515625,-0.796875 0,-0.390625 0.046875,-0.5625 0.21875,-1.28125 0.125,-0.46875 0.234375,-0.9375 0.34375,-1.421875 L 8.125,-6.46875 C 8.25,-6.90625 8.25,-6.9375 8.25,-6.984375 c 0,-0.265625 -0.203125,-0.4375 -0.46875,-0.4375 -0.5,0 -0.625,0.4375 -0.71875,0.859375 -0.171875,0.671875 -1.109375,4.375 -1.21875,4.984375 -0.03125,0 -0.703125,1.40625 -1.953125,1.40625 -0.890625,0 -1.0625,-0.78125 -1.0625,-1.40625 0,-0.984375 0.484375,-2.359375 0.921875,-3.515625 0.203125,-0.546875 0.296875,-0.78125 0.296875,-1.125 0,-0.734375 -0.53125,-1.375 -1.359375,-1.375 -1.578125,0 -2.21875,2.5 -2.21875,2.640625 0,0.0625 0.0625,0.15625 0.1875,0.15625 0.15625,0 0.171875,-0.078125 0.234375,-0.3125 C 1.3125,-6.59375 1.984375,-7.25 2.640625,-7.25 c 0.171875,0 0.4375,0.015625 0.4375,0.5625 0,0.453125 -0.1875,0.953125 -0.4375,1.609375 -0.765625,2.046875 -0.84375,2.703125 -0.84375,3.21875 0,1.75 1.3125,2.03125 2.03125,2.03125 1.09375,0 1.703125,-0.75 2.046875,-1.171875 z m 0,0"
             id="path8-1" />
        </g>
      </g>
      <g
         fill="#000000"
         fill-opacity="1"
         id="g6"
         transform="matrix(0.352778,0,0,0.352778,-0.868451,-0.638969)">
        <g
           id="use5"
           transform="translate(11.586,11.987)">
          <path
             d="m 3.140625,1.34375 c -0.3125,0.453125 -0.78125,0.859375 -1.375,0.859375 C 1.625,2.203125 1.046875,2.171875 0.875,1.625 c 0.03125,0.015625 0.09375,0.015625 0.109375,0.015625 0.359375,0 0.609375,-0.3125 0.609375,-0.59375 C 1.59375,0.78125 1.359375,0.6875 1.1875,0.6875 c -0.203125,0 -0.609375,0.140625 -0.609375,0.71875 0,0.609375 0.515625,1.03125 1.1875,1.03125 C 2.96875,2.4375 4.171875,1.34375 4.5,0.015625 L 5.671875,-4.65625 C 5.6875,-4.703125 5.71875,-4.78125 5.71875,-4.859375 5.71875,-5.03125 5.5625,-5.15625 5.390625,-5.15625 5.28125,-5.15625 5.03125,-5.109375 4.9375,-4.75 L 4.046875,-1.234375 C 4,-1.015625 4,-0.984375 3.890625,-0.859375 3.65625,-0.53125 3.265625,-0.125 2.6875,-0.125 c -0.671875,0 -0.734375,-0.65625 -0.734375,-0.96875 0,-0.6875 0.328125,-1.609375 0.65625,-2.46875 0.125,-0.34375 0.203125,-0.515625 0.203125,-0.75 0,-0.5 -0.359375,-0.953125 -0.953125,-0.953125 -1.09375,0 -1.53125,1.734375 -1.53125,1.828125 0,0.046875 0.046875,0.109375 0.125,0.109375 0.109375,0 0.125,-0.046875 0.171875,-0.21875 0.28125,-1 0.734375,-1.484375 1.203125,-1.484375 0.109375,0 0.3125,0 0.3125,0.390625 0,0.3125 -0.125,0.65625 -0.3125,1.109375 C 1.25,-1.953125 1.25,-1.5625 1.25,-1.28125 1.25,-0.140625 2.0625,0.125 2.65625,0.125 3,0.125 3.4375,0.015625 3.84375,-0.4375 l 0.015625,0.015625 C 3.6875,0.28125 3.5625,0.75 3.140625,1.34375 Z m 0,0"
             id="path9-1" />
        </g>
      </g>
      <g
         fill="#000000"
         fill-opacity="1"
         id="g7"
         transform="matrix(0.352778,0,0,0.352778,-0.868451,-0.638969)">
        <g
           id="use6"
           transform="translate(18.221001,9.4049997)">
          <path
             d="m 3.359375,0.0625 c 0,-1 -0.328125,-1.734375 -1.03125,-1.734375 C 1.78125,-1.671875 1.5,-1.21875 1.5,-0.84375 1.5,-0.46875 1.75,0 2.34375,0 2.5625,0 2.75,-0.0625 2.90625,-0.21875 c 0.03125,-0.046875 0.0625,-0.046875 0.078125,-0.046875 0.03125,0 0.03125,0.25 0.03125,0.328125 0,0.578125 -0.109375,1.6875 -1.109375,2.8125 -0.1875,0.203125 -0.1875,0.234375 -0.1875,0.28125 0,0.078125 0.09375,0.171875 0.171875,0.171875 0.140625,0 1.46875,-1.28125 1.46875,-3.265625 z m 0,0"
             id="path10-1" />
        </g>
      </g>
      <g
         fill="#000000"
         fill-opacity="1"
         id="g8"
         transform="matrix(0.352778,0,0,0.352778,-0.868451,-0.638969)">
        <g
           id="use7"
           transform="translate(30.977612,9.4049997)">
          <path
             d="m 4.53125,1.921875 c -0.46875,0.65625 -1.140625,1.25 -1.984375,1.25 -0.203125,0 -1.03125,-0.03125 -1.296875,-0.828125 0.0625,0.015625 0.140625,0.015625 0.171875,0.015625 0.53125,0 0.875,-0.453125 0.875,-0.84375 0,-0.390625 -0.328125,-0.53125 -0.59375,-0.53125 -0.28125,0 -0.875,0.203125 -0.875,1.046875 0,0.875 0.734375,1.484375 1.71875,1.484375 1.71875,0 3.46875,-1.59375 3.9375,-3.5 l 1.6875,-6.71875 c 0.03125,-0.078125 0.0625,-0.1875 0.0625,-0.28125 0,-0.265625 -0.203125,-0.4375 -0.46875,-0.4375 -0.15625,0 -0.515625,0.0625 -0.65625,0.59375 L 5.84375,-1.78125 C 5.75,-1.46875 5.75,-1.421875 5.609375,-1.234375 5.265625,-0.75 4.703125,-0.171875 3.875,-0.171875 c -0.96875,0 -1.046875,-0.953125 -1.046875,-1.40625 0,-0.984375 0.453125,-2.3125 0.921875,-3.546875 0.1875,-0.5 0.296875,-0.75 0.296875,-1.09375 0,-0.71875 -0.515625,-1.375 -1.359375,-1.375 -1.578125,0 -2.21875,2.5 -2.21875,2.640625 0,0.0625 0.0625,0.15625 0.1875,0.15625 0.15625,0 0.171875,-0.078125 0.234375,-0.3125 C 1.3125,-6.5625 1.96875,-7.25 2.640625,-7.25 c 0.15625,0 0.4375,0 0.4375,0.5625 0,0.453125 -0.1875,0.953125 -0.4375,1.609375 -0.84375,2.25 -0.84375,2.828125 -0.84375,3.234375 0,1.640625 1.171875,2.015625 2.03125,2.015625 0.5,0 1.109375,-0.15625 1.71875,-0.796875 L 5.5625,-0.609375 C 5.296875,0.40625 5.125,1.078125 4.53125,1.921875 Z m 0,0"
             id="path11-1" />
        </g>
      </g>
    </g>
    <g
       inkscape:label=""
       transform="translate(4.1386825,57.761995)"
       id="g43">
      <g
         fill="#000000"
         fill-opacity="1"
         id="g3"
         transform="matrix(0.352778,0,0,0.352778,-1.08894,-0.706481)">
        <g
           id="use2"
           transform="translate(1.993,16.112)">
          <path
             d="m 18.65625,-11.8125 c 0.46875,-0.8125 0.921875,-1.578125 2.171875,-1.703125 C 21,-13.53125 21.1875,-13.546875 21.1875,-13.875 c 0,-0.234375 -0.1875,-0.234375 -0.234375,-0.234375 -0.04687,0 -0.1875,0.04687 -1.5625,0.04687 -0.609375,0 -1.25,-0.04687 -1.859375,-0.04687 -0.125,0 -0.359375,0 -0.359375,0.390625 0,0.1875 0.15625,0.203125 0.28125,0.203125 0.421875,0.03125 1.078125,0.15625 1.078125,0.796875 0,0.265625 -0.07813,0.40625 -0.296875,0.765625 l -5.640625,9.859375 -0.734375,-10.75 c 0,-0.25 0.21875,-0.640625 1.375,-0.671875 0.28125,0 0.484375,0 0.484375,-0.390625 0,-0.203125 -0.203125,-0.203125 -0.3125,-0.203125 -0.71875,0 -1.484375,0.04687 -2.234375,0.04687 H 10.09375 c -0.296875,0 -0.671875,-0.04687 -0.984375,-0.04687 -0.125,0 -0.375,0 -0.375,0.390625 0,0.203125 0.140625,0.203125 0.5,0.203125 0.953125,0 0.953125,0.03125 1.03125,1.28125 l 0.0625,0.75 L 4.984375,-2.09375 4.21875,-12.75 c 0,-0.21875 0,-0.734375 1.40625,-0.765625 0.21875,0 0.453125,0 0.453125,-0.359375 0,-0.234375 -0.1875,-0.234375 -0.3125,-0.234375 -0.71875,0 -1.484375,0.04687 -2.234375,0.04687 H 2.453125 c -0.3125,0 -0.671875,-0.04687 -0.984375,-0.04687 -0.125,0 -0.375,0 -0.375,0.390625 0,0.203125 0.171875,0.203125 0.453125,0.203125 0.96875,0 1,0.125 1.03125,0.796875 l 0.90625,12.671875 C 3.515625,0.3125 3.53125,0.4375 3.78125,0.4375 c 0.203125,0 0.25,-0.09375 0.4375,-0.390625 L 10.375,-10.71875 11.140625,-0.046875 c 0.01563,0.359375 0.03125,0.484375 0.28125,0.484375 0.203125,0 0.265625,-0.109375 0.4375,-0.390625 z m 0,0"
             id="path4-1" />
        </g>
      </g>
      <g
         fill="#000000"
         fill-opacity="1"
         id="g4"
         transform="matrix(0.352778,0,0,0.352778,-1.08894,-0.706481)">
        <g
           id="use3"
           transform="translate(21.093,19.211)">
          <path
             d="m 3.765625,1.609375 c -0.375,0.546875 -0.9375,1.03125 -1.640625,1.03125 -0.171875,0 -0.859375,-0.03125 -1.078125,-0.6875 C 1.09375,1.96875 1.15625,1.96875 1.1875,1.96875 c 0.4375,0 0.71875,-0.375 0.71875,-0.703125 C 1.90625,0.9375 1.640625,0.8125 1.421875,0.8125 1.1875,0.8125 0.6875,0.984375 0.6875,1.6875 c 0,0.734375 0.625,1.234375 1.4375,1.234375 1.4375,0 2.875,-1.3125 3.28125,-2.90625 l 1.40625,-5.59375 c 0.015625,-0.078125 0.046875,-0.15625 0.046875,-0.25 0,-0.203125 -0.171875,-0.359375 -0.390625,-0.359375 -0.125,0 -0.4375,0.0625 -0.546875,0.5 l -1.0625,4.203125 c -0.0625,0.265625 -0.0625,0.296875 -0.1875,0.453125 -0.28125,0.40625 -0.75,0.890625 -1.4375,0.890625 -0.8125,0 -0.875,-0.796875 -0.875,-1.171875 0,-0.828125 0.375,-1.921875 0.765625,-2.96875 0.15625,-0.40625 0.25,-0.609375 0.25,-0.890625 0,-0.609375 -0.4375,-1.15625 -1.140625,-1.15625 -1.3125,0 -1.84375,2.078125 -1.84375,2.203125 0,0.046875 0.046875,0.125 0.15625,0.125 C 0.671875,-4 0.6875,-4.0625 0.75,-4.265625 1.09375,-5.46875 1.640625,-6.03125 2.1875,-6.03125 c 0.140625,0 0.375,0 0.375,0.46875 0,0.375 -0.15625,0.78125 -0.375,1.328125 -0.703125,1.875 -0.703125,2.359375 -0.703125,2.703125 0,1.359375 0.984375,1.671875 1.703125,1.671875 0.40625,0 0.921875,-0.125 1.4375,-0.65625 L 4.640625,-0.5 c -0.21875,0.84375 -0.359375,1.40625 -0.875,2.109375 z m 0,0"
             id="path5-1" />
        </g>
      </g>
    </g>
    <text
       xml:space="preserve"
       style="font-size:7.76111px;font-family:'Times New Roman';-inkscape-font-specification:'Times New Roman, ';text-align:center;writing-mode:lr-tb;direction:ltr;text-anchor:middle;fill:#0000ff;fill-opacity:1;stroke:none;stroke-width:0.499999;stroke-linecap:square;stroke-dasharray:none;stroke-dashoffset:0;stroke-opacity:1"
       x="31.749058"
       y="5.2918186"
       id="text43"><tspan
         sodipodi:role="line"
         id="tspan43"
         style="font-size:7.76111px;fill:#0000ff;fill-opacity:1;stroke-width:0.5"
         x="31.749058"
         y="5.2918186">Dominant eddy</tspan><tspan
         sodipodi:role="line"
         style="font-size:7.76111px;fill:#0000ff;fill-opacity:1;stroke-width:0.5"
         x="31.749056"
         y="14.993206"
         id="tspan44">for normal velocity</tspan></text>
    <text
       xml:space="preserve"
       style="font-size:7.76111px;font-family:'Times New Roman';-inkscape-font-specification:'Times New Roman, ';text-align:center;writing-mode:lr-tb;direction:ltr;text-anchor:middle;fill:#ff0000;fill-opacity:1;stroke:none;stroke-width:0.499999;stroke-linecap:square;stroke-dasharray:none;stroke-dashoffset:0;stroke-opacity:1"
       x="248.7074"
       y="84.666809"
       id="text43-0"><tspan
         sodipodi:role="line"
         id="tspan43-6"
         style="font-size:7.76111px;fill:#ff0000;fill-opacity:1;stroke-width:0.5"
         x="248.7074"
         y="84.666809">Dominant eddy</tspan><tspan
         sodipodi:role="line"
         style="font-size:7.76111px;fill:#ff0000;fill-opacity:1;stroke-width:0.5"
         x="248.7074"
         y="94.368195"
         id="tspan44-8">for normal velocity</tspan></text>
    <text
       xml:space="preserve"
       style="font-size:7.76111px;font-family:'Times New Roman';-inkscape-font-specification:'Times New Roman, ';text-align:center;writing-mode:lr-tb;direction:ltr;text-anchor:middle;fill:#0000ff;fill-opacity:1;stroke:none;stroke-width:0.499999;stroke-linecap:square;stroke-dasharray:none;stroke-dashoffset:0;stroke-opacity:1"
       x="142.87407"
       y="31.750151"
       id="text43-4"><tspan
         sodipodi:role="line"
         id="tspan43-4"
         style="font-size:7.76111px;fill:#0000ff;fill-opacity:1;stroke-width:0.5"
         x="142.87407"
         y="31.750151">Dominant eddy</tspan><tspan
         sodipodi:role="line"
         style="font-size:7.76111px;fill:#0000ff;fill-opacity:1;stroke-width:0.5"
         x="142.87407"
         y="41.451538"
         id="tspan44-3">for tangential velocity</tspan></text>
    <text
       xml:space="preserve"
       style="font-size:7.76111px;font-family:'Times New Roman';-inkscape-font-specification:'Times New Roman, ';text-align:center;writing-mode:lr-tb;direction:ltr;text-anchor:middle;fill:#ff0000;fill-opacity:1;stroke:none;stroke-width:0.499999;stroke-linecap:square;stroke-dasharray:none;stroke-dashoffset:0;stroke-opacity:1"
       x="251.35324"
       y="31.750151"
       id="text43-4-4"><tspan
         sodipodi:role="line"
         id="tspan43-4-9"
         style="font-size:7.76111px;fill:#ff0000;fill-opacity:1;stroke-width:0.5"
         x="251.35324"
         y="31.750151">Dominant eddy</tspan><tspan
         sodipodi:role="line"
         style="font-size:7.76111px;fill:#ff0000;fill-opacity:1;stroke-width:0.5"
         x="251.35324"
         y="41.451538"
         id="tspan44-3-5">for tangential velocity</tspan></text>
    <path
       style="fill:none;stroke:#000000;stroke-width:0.525013;stroke-linecap:square;stroke-dasharray:none;stroke-dashoffset:0;stroke-opacity:1;marker-start:url(#DartArrow);marker-end:url(#DartArrow)"
       d="m 6.6145838,72.23496 c 0,26.954368 0,55.42624 0,55.42624"
       id="path12"
       sodipodi:nodetypes="cc" />
    <text
       xml:space="preserve"
       style="font-size:11.2889px;font-family:'Times New Roman';-inkscape-font-specification:'Times New Roman, ';text-align:center;writing-mode:lr-tb;direction:ltr;text-anchor:middle;fill:none;stroke:#000000;stroke-width:0.499999;stroke-linecap:square;stroke-dasharray:none;stroke-dashoffset:0;stroke-opacity:1"
       x="12.170833"
       y="98.689568"
       id="text13"><tspan
         sodipodi:role="line"
         id="tspan13"
         style="font-style:italic;fill:#000000;stroke:none;stroke-width:0.5"
         x="12.170833"
         y="98.689568">y</tspan></text>
  </g>
</svg>
